<?xml version="1.0" standalone="no"?>
<!DOCTYPE svg PUBLIC "-//W3C//DTD SVG 1.1//EN" "http://www.w3.org/Graphics/SVG/1.1/DTD/svg11.dtd">
<svg xmlns="http://www.w3.org/2000/svg">
<metadata>Copyright (C) 2019 by original authors @ fontello.com</metadata>
<defs>
<font id="fontello" horiz-adv-x="1000" >
<font-face font-family="fontello" font-weight="400" font-stretch="normal" units-per-em="1000" ascent="850" descent="-150" />
<missing-glyph horiz-adv-x="1000" />
<glyph glyph-name="left" unicode="&#xe800;" d="M345 376l217 217a34 34 0 0 0 47-48l-193-193 193-193a34 34 0 0 0-47-48l-217 217a33 33 0 0 0-10 24c0 9 3 17 10 24z m154 473c276 0 500-224 500-499 0-276-224-500-500-500s-499 224-499 500c0 275 224 499 499 499z m0-932c239 0 433 194 433 433 0 238-194 432-433 432-238 0-432-194-432-432 0-239 194-433 432-433z" horiz-adv-x="1000" />

<glyph glyph-name="left_b" unicode="&#xe801;" d="M521-150l-521 500 521 500 27-28-492-472 492-472-27-28z" horiz-adv-x="548" />

<glyph glyph-name="li" unicode="&#xe802;" d="M500 850c-276 0-500-224-500-500 0-276 224-500 500-500 276 0 500 224 500 500 0 276-224 500-500 500z m157-524l-216-216a33 33 0 0 0-48 47l193 193-193 193a33 33 0 1 0 48 47l216-216a33 33 0 0 0 9-24c0-9-3-17-9-24z" horiz-adv-x="1000" />

<glyph glyph-name="likes" unicode="&#xe803;" d="M688 850c-10 0-20-1-29-1-4-1-7-1-11-2a281 281 0 0 1-30-5 323 323 0 0 1-14-4c-5-1-9-2-13-4-4-1-8-2-12-4-11-4-21-8-31-13-2-1-4-2-6-3-5-3-10-6-15-9-3-2-6-3-8-5-5-3-10-6-15-10-1-1-3-2-4-3a312 312 0 0 1-187 63c-173 0-313-140-313-312 0-283 182-539 487-685a31 31 0 0 1 27 0c304 146 486 402 486 685 0 172-140 312-312 312z m-188-934c-274 136-437 368-437 622 0 137 112 250 250 250 50 0 99-16 140-44-48-55-78-127-78-206a31 31 0 1 1 63 0c0 74 32 141 84 187 5 4 10 8 15 12 1 1 2 1 3 2a247 247 0 0 0 36 22 266 266 0 0 0 20 9c3 1 5 2 7 3 5 1 10 3 15 4 3 1 6 2 9 3 4 1 9 2 13 3 4 1 9 1 13 2 3 0 7 1 10 1a264 264 0 0 0 25 2c137 0 250-113 250-250 0-254-164-486-438-622z m188 809a31 31 0 1 1 0-62c68 0 125-56 125-125a31 31 0 1 1 62 0c0 103-84 187-187 187z" horiz-adv-x="1000" />

<glyph glyph-name="link" unicode="&#xe804;" d="M904 418l-74-74-123-123c-6-7-13-13-19-18a240 240 0 0 0-237-35 232 232 0 0 0-80 53l102 102a94 94 0 0 1 133 0l78 78 118 118a94 94 0 0 1-133 133l-94-94a272 272 0 0 1-189 14l182 182c92 93 243 93 336 0 93-93 93-244 0-336z m-355 113a232 232 0 0 0 80-52l-102-102a94 94 0 0 1-133 0l-197-197a94 94 0 0 1 0-133 94 94 0 0 1 133 0l91 91c77-31 98-34 189-13l-178-180c-93-92-244-92-336 0-93 93-93 244 0 337l196 197c3 2 6 6 9 8a238 238 0 0 0 248 44z" horiz-adv-x="1000" />

<glyph glyph-name="logos" unicode="&#xe805;" d="M944-134l94 164 94-164h-188z m-117 177h188l-94-164-94 164z m94 192l94-164h-188l94 164z m-211 14h187l-94-165-93 165z m93 191l94-164h-187l93 164z m-211 14h188l-94-164-94 164z m94 191l94-164h-188l94 164z m-211 14h188l-94-164-94 164z m94 191l94-164h-188l94 164z m-211-369l94 164 93-164h-187z m-118-205l94 164 94-164h-188z m-117-205l94 164 94-164h-188z m-117-205l94 164 94-164h-188z m305 177l-94-164-94 164h188z m117 206l-94-165-94 165h188z m117 205l-93-164-94 164h187z m118-588h-188l94 164 94-164z m117 177l-94-164-94 164h188z m117-177h-187l93 164 94-164z" horiz-adv-x="1143" />

<glyph glyph-name="lupa" unicode="&#xe806;" d="M1018-117a66 66 0 0 0-46-19 66 66 0 0 0-47 19l-173 171a449 449 0 0 0-274-93c-246 0-447 198-447 441s201 441 447 441 448-198 448-441c0-95-31-183-83-254l175-173a64 64 0 0 0 0-92z m-540 856c-188 0-342-151-342-337s154-337 342-337a343 343 0 0 1 271 132 332 332 0 0 1 71 205c0 186-153 337-342 337z m194-272c-7-4-15-5-23-5-19 0-38 10-47 29a166 166 0 0 1-150 92c-29 0-52 23-52 52 0 29 23 52 52 52 105 0 199-58 245-151 12-26 2-57-25-69z" horiz-adv-x="1040" />

<glyph glyph-name="marketing" unicode="&#xe807;" d="M1428 452l-263-540c-17-34-61-62-99-62h-980c-38 0-55 28-38 62l263 540c17 34 61 62 99 62h980c38 0 55-28 38-62z m-1178 30l-229-469v615c0 38 30 69 68 69h300v40c0 28 11 54 30 73a101 101 0 0 0 73 31h174c57 0 103-47 103-104v-40h300c38 0 69-31 69-69v-46h-728c-63 0-132-43-160-100z m208 215h243v40c0 19-16 35-35 35h-174a33 33 0 0 1-24-10 35 35 0 0 1-10-25v-40z" horiz-adv-x="1444" />

<glyph glyph-name="right" unicode="&#xe808;" d="M655 376l-217 217a34 34 0 0 1-47-48l194-193-194-193a34 34 0 0 1 47-48l217 217a33 33 0 0 1 10 24 33 33 0 0 1-10 24z m-154 473c-276 0-500-224-500-499 0-276 224-500 500-500 275 0 499 224 499 500 0 275-224 499-499 499z m0-932c-239 0-433 194-433 433 0 238 194 432 433 432 238 0 432-194 432-432 0-239-194-433-432-433z" horiz-adv-x="1000" />

<glyph glyph-name="right_b" unicode="&#xe809;" d="M27-150l521 500-521 500-27-28 492-472-492-472 27-28z" horiz-adv-x="548" />

<glyph glyph-name="satisfied-clients" unicode="&#xe80a;" d="M453 163c129 0 235 127 235 285 0 157-106 285-235 285-64 0-123-31-168-86-43-54-66-124-66-199 0-158 105-285 234-285z m0 507c95 0 172-99 172-222 0-123-77-223-172-223-95 0-172 100-172 223 0 123 77 222 172 222z m197-476a31 31 0 1 1 0-63c107 0 194-87 194-194 0-13-11-25-25-25h-731a25 25 0 0 0-25 25c0 107 86 194 193 194a31 31 0 1 1 0 63c-141 0-256-115-256-257a88 88 0 0 1 88-87h731a88 88 0 0 1 87 87c0 142-115 257-256 257z m-174 574c22 13 46 20 71 20 95 0 172-100 172-223 0-22-3-44-7-64a31 31 0 0 1 30-39c14 0 27 10 30 24a348 348 0 0 1 9 79c0 157-105 285-234 285a202 202 0 0 1-103-29 31 31 0 0 1 32-53z m274-449a31 31 0 1 1 0-63c107 0 188-89 188-196 0-3-1-7-3-10a31 31 0 0 1 58-25c5 11 7 23 7 36 0 141-109 258-250 258z" horiz-adv-x="1000" />

<glyph glyph-name="web-app-design" unicode="&#xe80b;" d="M973 448l-291-292-671-295 295 671 292 291a32 32 0 1 0 45-46l-282-283-175-397 61-61 397 175 283 283a32 32 0 0 0 46 0c13-13 13-34 0-46z m-366-179a33 33 0 0 0-46 0 33 33 0 0 0 0 46l272 272a32 32 0 0 0 46 0c13-13 13-33 0-46l-272-272z m-71 71a33 33 0 0 0-46 46l272 272a33 33 0 0 0 46-46l-272-272z m-71 71a32 32 0 0 0-23-9 33 33 0 0 0-23 55l272 272a32 32 0 0 0 46 0 32 32 0 0 0 0-46l-272-272z" horiz-adv-x="1000" />

<glyph glyph-name="we-launched" unicode="&#xe80c;" d="M1189-73h-1151a38 38 0 0 1-38-39 38 38 0 0 1 38-38h1151a38 38 0 0 1 38 38 38 38 0 0 1-38 39z m-537 769v77h77a38 38 0 0 1 38 39 38 38 0 0 1-38 38h-230a38 38 0 0 1-39-38 38 38 0 0 1 39-39h76s0-80 0-77c-321-20-575-288-575-615v-39a38 38 0 0 1 38-38h1151a38 38 0 0 1 38 38v39c0 327-254 595-575 615z m-575-615c0 297 240 538 537 538s537-241 537-538h-1074z" horiz-adv-x="1227" />

<glyph glyph-name="arrow" unicode="&#xe80d;" d="M119-127l479 434a58 58 0 0 1 0 87l-2 1-477 433a74 74 0 0 1-97 0l-1-1a59 59 0 0 1-21-44v-865c0-18 9-34 22-45l0 0a74 74 0 0 1 97 0z" horiz-adv-x="625" />

<glyph glyph-name="blog-posts" unicode="&#xe80e;" d="M656 319h-312a31 31 0 0 1 0-63h312a31 31 0 0 1 0 63z m63 187h-438a31 31 0 1 1 0-62h438a31 31 0 1 1 0 62z m-219 344c-276 0-500-196-500-437 0-139 73-261 188-342v-221l219 133c30-5 61-8 93-8 276 0 500 196 500 438 0 241-224 437-500 437z m0-812c-36 0-72 4-106 11l-147-88 2 145c-112 67-186 180-186 307 0 207 195 374 437 374 242 0 437-167 437-374 0-207-195-375-437-375z" horiz-adv-x="1000" />

<glyph glyph-name="cups-of-coffee" unicode="&#xe80f;" d="M1046-122c0-15-12-28-28-28h-990c-15 0-28 13-28 28 0 16 13 29 28 29h990c16 0 28-13 28-29z m-551 467a28 28 0 0 1 39 2 29 29 0 0 1-1 40c-48 45-38 138 4 190 56 71 68 197-4 265a28 28 0 0 1-40-1 29 29 0 0 1 2-40c43-41 42-133-2-188-29-37-47-86-48-136-1-53 16-100 50-132z m596 59v-54c0-78-63-142-140-142h-63c-42-120-155-206-288-206h-154c-168 0-306 140-306 311v282c0 15 13 28 28 28h180c37 56 35 139-6 178a29 29 0 0 0-1 40 28 28 0 0 0 40 1c72-68 59-194 3-265-41-52-51-145-3-190 11-11 12-29 1-40a28 28 0 0 0-40-2c-33 32-51 79-49 132 1 31 8 62 20 89h-117v-253c0-140 112-254 250-254h154c138 0 250 114 250 254v253h-211c-15 0-28 13-28 29 0 15 13 28 28 28h239c16 0 28-13 28-28v-49h45c77 0 140-64 140-142z m-56 0c0 47-38 85-84 85h-45v-224h45c46 0 84 38 84 85v54z" horiz-adv-x="1091" />

<glyph glyph-name="customization" unicode="&#xe810;" d="M998 353c0 37-26 77-59 88-33 12-64 40-73 62-10 23-7 65 8 97 15 31 5 78-21 104-26 26-72 35-103 20-32-15-74-18-97-8-22 9-50 41-62 73s-51 60-88 60c-37 0-76-27-87-60-12-32-40-64-63-73-22-10-65-7-96 8-31 15-78 6-104-20-26-26-35-73-20-104 15-32 17-74 8-97-9-22-41-50-74-62-32-11-59-51-59-88 0-36 27-76 59-87 33-12 65-40 74-63 9-22 7-64-8-96-15-31-6-78 20-104 26-26 73-35 104-20 31 15 74 17 96 8 23-9 51-41 63-74 11-32 50-59 87-59 37 0 76 27 88 59 12 33 40 65 62 74 23 10 65 7 97-8 31-15 77-6 103 20 26 26 36 73 21 104-15 32-18 74-9 96 10 23 41 51 74 63 33 11 59 51 59 87z m-495-181c-100 0-181 81-181 181a182 182 0 0 0 181 182c101 0 182-81 182-182a181 181 0 0 0-182-181z" horiz-adv-x="1000" />

<glyph glyph-name="development" unicode="&#xe811;" d="M10 358l100 53 436-235 437 235 99-53-536-289-536 289z m0 200l536 289 536-289-536-289-536 289z m536-583l437 236 99-54-536-289-536 289 100 54 436-236z" horiz-adv-x="1100" />

<glyph glyph-name="icon-cart" unicode="&#xe812;" d="M625 725h-63c0 69-83 125-187 125-104 0-187-56-187-125h-63a125 125 0 0 1-125-125v-625a125 125 0 0 1 125-125h500a125 125 0 0 1 125 125v625a125 125 0 0 1-125 125z m-250 63c69 0 125-20 125-63h-250c0 43 56 63 125 63z m312-813a63 63 0 0 0-62-62h-500a63 63 0 0 0-62 62v63h624v-63z m0 125h-624v500a63 63 0 0 0 62 63h63v-188h62v188h250v-188h62v188h63a63 63 0 0 0 62-63v-500z" horiz-adv-x="750" />

<glyph glyph-name="icon-play" unicode="&#xe813;" d="M447 584l253-211a29 29 0 0 0 0-46l-253-210a29 29 0 0 0-49 22v422a29 29 0 0 0 49 23z m10-382l178 148-178 148v-296z m397-206c-96-96-225-146-355-146a497 497 0 0 0-244 64 29 29 0 1 0 29 51c171-97 389-67 528 73 172 172 172 452 0 624-172 172-452 172-624 0-172-172-172-452 0-624a29 29 0 1 0-42-42c-195 195-195 513 0 708 195 195 513 195 708 0 195-195 195-513 0-708z" horiz-adv-x="1000" />

<glyph glyph-name="icon-search" unicode="&#xe814;" d="M990-95l-258 254c68 73 109 170 109 277 0 229-188 414-420 414-233 0-421-185-421-414 0-228 188-414 421-414 100 0 192 35 264 93l259-255a33 33 0 0 1 46 0 32 32 0 0 1 0 45z m-569 181c-197 0-356 157-356 350 0 194 159 351 356 351 196 0 355-157 355-351 0-193-159-350-355-350z" horiz-adv-x="1000" />
</font>
</defs>
</svg>
